<?xml version="1.0" standalone="no"?>
<!DOCTYPE svg PUBLIC "-//W3C//DTD SVG 20010904//EN"
 "http://www.w3.org/TR/2001/REC-SVG-20010904/DTD/svg10.dtd">
<svg version="1.0" xmlns="http://www.w3.org/2000/svg"
 width="640.000000pt" height="640.000000pt" viewBox="0 0 640.000000 640.000000"
 preserveAspectRatio="xMidYMid meet">

<g transform="translate(0.000000,640.000000) scale(0.100000,-0.100000)"
fill="#000000" stroke="none">
<path d="M2413 2921 c-24 -17 -43 -34 -43 -39 0 -4 30 -8 67 -10 182 -9 384
-91 738 -300 275 -162 405 -220 545 -244 108 -19 224 11 306 78 l29 23 -63
-25 c-129 -52 -274 -40 -467 37 -129 52 -226 108 -383 223 -138 101 -231 157
-332 198 -88 37 -226 75 -297 83 -54 6 -61 5 -100 -24z"/>
<path d="M2353 2754 c6 -127 34 -212 98 -308 287 -430 1132 -557 1518 -228
l53 46 -4 -75 c-7 -126 -46 -182 -252 -363 -185 -163 -266 -361 -237 -580 18
-131 30 -146 24 -30 -11 202 44 342 191 489 50 50 120 113 156 140 36 27 71
55 78 62 7 7 18 13 25 13 11 0 -2 -16 -125 -147 -43 -45 -90 -108 -107 -142
-38 -74 -40 -89 -4 -36 14 22 92 108 173 191 158 162 198 222 221 332 18 86 7
208 -25 277 l-26 58 -43 -39 c-131 -121 -284 -144 -482 -74 -115 41 -198 83
-415 210 -362 212 -546 287 -724 297 l-99 6 6 -99z"/>
</g>
</svg>
